# xmcd CD database file
#
# Track frame offsets:
#	150
#	19791
#	33790
#	51843
#	70007
#	84270
#	103857
#	116727
#	129431
#	141437
#	155019
#	170188
#
# Disc length: 2462 seconds
#
# Revision: 2
# Processed by: cddbd v1.4PL0 Copyright (c) Steve Scherf et al.
# Submitted via: CDex 1.40Beta9
#
DISCID=a3099c0c
DTITLE=Gary Allen - Smoke Rings in the Dark
DYEAR=1900
DGENRE=Country
TTITLE0=Smoke Rings in the Dark
TTITLE1=Right Where I Need to Be
TTITLE2=Don't Tell Mama
TTITLE3=Loving You Against My Will
TTITLE4=Sorry
TTITLE5=Cryin' for Nothin'
TTITLE6=Bourbon Borderline
TTITLE7=Runaway
TTITLE8=Learning to Live With Me
TTITLE9=Cowboy Blues
TTITLE10=I'm the One
TTITLE11=Greenfields
EXTD=ID3G: 2
EXTT0=
EXTT1=
EXTT2=
EXTT3=
EXTT4=
EXTT5=
EXTT6=
EXTT7=
EXTT8=
EXTT9=
EXTT10=
EXTT11=
PLAYORDER=
